<?xml version="1.0" standalone="no"?>
<!DOCTYPE svg PUBLIC "-//W3C//DTD SVG 20010904//EN"
 "http://www.w3.org/TR/2001/REC-SVG-20010904/DTD/svg10.dtd">
<svg version="1.0" xmlns="http://www.w3.org/2000/svg"
 width="1261.000000pt" height="313.000000pt" viewBox="0 0 1261.000000 313.000000"
 preserveAspectRatio="xMidYMid meet">

<g transform="translate(0.000000,313.000000) scale(0.100000,-0.100000)"
fill="rgb(39, 51, 165)" stroke="none">
<path d="M2250 2424 c-101 -248 -160 -419 -359 -1054 -84 -267 -164 -496 -168
-483 -2 6 12 134 32 283 19 150 51 424 70 609 35 337 60 553 71 624 5 33 3 37
-15 37 -18 0 -21 5 -19 28 3 31 33 29 -250 17 l-173 -8 -128 -206 c-245 -395
-416 -698 -760 -1355 -137 -262 -162 -326 -126 -326 13 0 14 -4 5 -21 -7 -11
-9 -24 -5 -27 4 -4 113 -7 243 -7 l236 0 38 50 c21 27 79 125 130 217 131 237
142 232 117 -61 -11 -118 -10 -135 3 -145 9 -6 17 -20 19 -31 8 -39 91 -46
479 -39 326 5 407 11 435 31 6 5 49 124 95 265 80 245 112 325 74 187 -10 -37
-18 -102 -18 -154 -1 -111 21 -163 104 -247 49 -48 68 -60 131 -79 66 -21 95
-23 274 -23 232 -1 316 13 411 70 85 50 135 109 201 239 l59 115 0 -87 c-1
-103 16 -147 90 -231 57 -65 86 -80 183 -98 104 -18 388 -18 486 1 162 31 263
106 338 253 54 105 127 274 127 294 0 8 -9 25 -20 38 -11 13 -20 29 -20 36 0
19 -64 25 -247 21 l-163 -2 -42 -65 c-48 -73 -90 -100 -153 -100 -72 0 -74 7
-32 112 20 51 46 119 56 151 11 32 33 81 48 109 43 80 144 133 181 96 7 -7 12
-31 12 -55 0 -25 5 -45 14 -50 8 -4 15 -17 17 -28 4 -17 17 -22 94 -32 103
-13 216 -16 293 -7 l52 7 34 107 c49 154 69 253 64 315 -4 44 -14 67 -54 126
-85 127 -175 154 -484 146 -374 -10 -479 -61 -617 -301 l-23 -41 0 47 c0 48
-25 128 -40 128 -5 0 -20 20 -34 45 -31 52 -90 90 -173 112 -46 12 -105 14
-288 10 -201 -3 -240 -7 -305 -26 -143 -43 -213 -98 -295 -234 -22 -36 -41
-64 -43 -63 -1 2 32 99 74 217 42 118 104 295 139 394 35 99 66 188 70 198 6
13 2 17 -19 17 -23 0 -26 3 -20 23 5 23 3 24 -72 30 -42 4 -146 7 -229 7
l-153 0 -52 -126z m395 19 c-12 -38 -96 -275 -185 -528 -206 -585 -362 -1039
-403 -1172 -20 -66 -38 -108 -49 -114 -10 -5 -80 -8 -157 -7 l-139 3 44 110
c63 155 159 437 248 730 141 458 230 718 323 938 l45 107 148 0 149 0 -24 -67z
m-921 -463 c-56 -500 -163 -1352 -171 -1360 -17 -17 -271 -6 -290 14 -2 2 3
75 12 162 8 88 15 183 15 212 l0 52 -112 0 -113 0 -19 -33 c-11 -17 -54 -95
-96 -172 -41 -77 -90 -162 -108 -188 l-33 -47 -159 0 c-88 0 -160 3 -160 6 0
8 204 395 373 709 223 414 338 614 544 948 l104 167 133 0 132 0 -52 -470z
m1689 -50 c64 -24 120 -68 143 -111 43 -84 -18 -328 -186 -745 -85 -208 -140
-313 -185 -352 -122 -105 -244 -135 -501 -123 -119 6 -147 11 -195 33 -112 51
-146 149 -116 329 15 91 144 496 194 608 38 88 121 227 156 261 42 42 133 84
227 104 98 20 110 21 270 20 113 -2 145 -6 193 -24z m1177 -4 c67 -25 114 -61
140 -107 20 -36 22 -51 17 -113 -6 -71 -69 -299 -90 -325 -9 -11 -34 -12 -117
-8 -145 9 -150 11 -150 59 0 51 -24 101 -57 119 -17 9 -55 14 -107 13 -167 -2
-229 -74 -336 -391 -51 -150 -49 -173 10 -204 41 -22 185 -26 241 -8 41 14 91
60 127 116 l27 43 133 0 c94 0 132 -3 132 -12 0 -19 -119 -283 -150 -331 -37
-58 -115 -120 -184 -146 -95 -35 -179 -44 -344 -38 -137 6 -160 10 -213 33
-107 48 -135 108 -125 259 6 96 33 206 84 345 17 47 45 132 62 190 39 134 118
295 177 360 78 87 173 139 286 160 89 15 385 6 437 -14z"/>
<path d="M1404 1875 c-27 -48 -244 -498 -244 -509 0 -3 56 -6 124 -6 l124 0 6
28 c50 229 86 429 86 475 l0 57 -35 0 c-30 0 -37 -5 -61 -45z"/>
<path d="M2947 1556 c-96 -35 -127 -81 -213 -319 -62 -171 -66 -212 -28 -248
23 -21 36 -24 119 -27 197 -8 268 54 355 307 54 160 48 254 -20 288 -33 17
-165 16 -213 -1z m164 -86 c39 -22 18 -130 -62 -310 -45 -102 -62 -125 -109
-144 -53 -21 -129 -21 -137 0 -7 18 89 292 126 361 20 36 38 54 80 75 58 31
73 33 102 18z"/>
<path d="M9461 2339 c-35 -112 -66 -210 -68 -216 -3 -9 4 -13 21 -13 23 0 26
-3 20 -24 l-6 -23 179 -8 c188 -7 258 1 286 34 12 13 127 361 127 384 0 4 -9
7 -21 7 -18 0 -20 4 -15 25 l6 25 -182 0 c-101 0 -206 3 -234 6 l-50 6 -63
-203z m426 147 c1 -1 -9 -38 -23 -81 -13 -44 -36 -117 -50 -162 -23 -77 -27
-82 -60 -93 -51 -17 -268 -4 -260 15 3 8 10 33 16 57 15 55 81 260 87 271 4 7
281 -1 290 -7z"/>
<path d="M7043 2496 c-95 -12 -174 -24 -176 -26 -2 -3 -30 -93 -61 -200 -32
-107 -172 -538 -312 -957 -140 -419 -254 -767 -254 -773 0 -20 501 -8 566 13
l51 17 63 220 c35 121 67 220 71 220 4 0 10 -8 13 -17 8 -25 43 -254 52 -333
3 -35 12 -69 19 -75 8 -5 15 -19 17 -30 3 -19 11 -20 277 -18 150 1 274 3 276
5 1 2 -1 50 -6 106 -11 124 -31 208 -108 447 -84 259 -83 238 -14 253 195 41
414 235 513 456 54 119 63 231 31 358 -54 209 -154 302 -369 344 -114 22 -437
17 -649 -10z m530 -16 c59 -6 132 -20 162 -31 75 -28 147 -96 187 -176 28 -56
33 -79 36 -157 5 -112 -14 -192 -69 -294 -112 -209 -297 -357 -492 -393 l-68
-13 7 -30 c3 -17 33 -116 66 -221 81 -259 108 -366 115 -456 l6 -76 -63 -6
c-35 -4 -118 -7 -186 -7 -120 0 -124 1 -128 22 -2 13 -12 83 -21 156 -21 165
-54 314 -92 412 -24 64 -32 75 -55 78 -23 3 -28 -3 -56 -70 -37 -89 -121 -352
-153 -476 -22 -84 -26 -93 -54 -103 -39 -15 -365 -25 -365 -11 0 5 16 54 36
108 135 373 486 1434 534 1616 26 100 5 89 205 112 234 28 296 30 448 16z"/>
<path d="M7290 2124 c-14 -2 -52 -11 -85 -20 l-60 -15 -34 -107 c-18 -59 -41
-135 -51 -168 l-18 -62 97 -6 c192 -13 310 20 362 103 68 107 63 211 -13 256
-31 18 -141 29 -198 19z m135 -98 c32 -14 35 -19 35 -56 0 -65 -44 -136 -104
-167 -15 -8 -61 -17 -102 -20 l-73 -6 38 113 c41 122 41 122 126 140 22 4 41
8 43 9 1 1 18 -6 37 -13z"/>
<path d="M10267 1999 c-177 -15 -296 -73 -419 -202 -38 -39 -68 -68 -68 -65 0
3 11 36 25 72 31 81 31 96 4 96 -17 0 -20 4 -15 24 4 16 1 26 -9 29 -8 4 -106
9 -217 13 -164 5 -206 3 -219 -7 -32 -28 -132 -297 -268 -719 -81 -254 -171
-509 -226 -642 -5 -14 -2 -18 12 -18 28 0 34 -10 22 -32 -6 -11 -9 -21 -7 -22
2 -2 102 0 223 4 144 4 229 11 246 19 22 11 32 32 65 142 21 71 42 129 45 129
4 0 9 -18 13 -41 21 -134 145 -238 327 -275 100 -20 325 -15 429 11 228 55
386 176 470 359 l27 59 5 -89 c6 -96 20 -140 72 -218 72 -108 99 -117 362
-124 229 -5 342 6 420 42 126 58 231 201 323 441 37 94 38 105 10 105 -17 0
-20 4 -15 24 5 20 1 24 -25 30 -17 3 -116 6 -219 6 l-188 0 -18 -49 c-37 -104
-133 -192 -188 -172 -31 12 -34 93 -6 182 l21 69 96 0 c120 0 505 19 569 28
l47 7 29 70 c50 121 71 227 66 340 -3 74 -10 112 -25 147 -47 105 -131 176
-238 202 -193 47 -436 18 -607 -71 -78 -40 -182 -132 -218 -192 -14 -22 -28
-41 -31 -41 -3 0 -9 23 -12 50 -7 59 -45 134 -100 196 -47 53 -98 70 -248 84
-119 11 -216 11 -342 -1z m402 -50 c53 -10 70 -18 106 -53 29 -28 47 -56 55
-86 15 -53 8 -186 -12 -245 l-13 -40 -87 -9 c-48 -4 -117 -5 -153 -1 l-65 7 0
42 c0 79 -59 126 -156 126 -74 0 -134 -28 -173 -81 -37 -51 -47 -99 -27 -137
24 -46 39 -53 174 -83 77 -17 152 -41 192 -61 122 -62 153 -165 97 -326 -71
-205 -196 -320 -422 -388 -76 -23 -110 -27 -220 -28 -147 -1 -204 12 -295 66
-101 61 -141 170 -110 305 17 77 38 82 259 66 73 -5 91 -9 87 -20 -9 -23 19
-77 50 -98 21 -13 53 -20 111 -23 70 -4 88 -1 128 18 72 35 123 141 99 205
-10 25 -69 50 -197 84 -247 64 -327 143 -315 311 10 132 103 278 233 362 63
41 182 82 280 98 73 11 287 5 374 -11z m1051 0 c121 -19 202 -70 238 -149 22
-49 22 -215 -1 -300 -28 -106 -67 -199 -85 -204 -39 -12 -379 -27 -531 -24
l-164 3 -19 -54 c-48 -142 -47 -253 2 -303 27 -27 33 -28 117 -28 81 0 93 3
136 30 53 33 102 96 119 152 l11 38 134 0 c80 0 133 -4 133 -10 0 -16 -114
-273 -143 -322 -34 -58 -120 -124 -205 -156 -60 -23 -85 -26 -250 -30 -153 -3
-191 -1 -235 13 -119 38 -158 102 -165 264 -7 166 33 338 133 577 113 270 228
393 431 465 129 45 231 56 344 38z m-2010 -24 c0 -2 -7 -22 -15 -42 -91 -236
-329 -915 -385 -1098 -23 -77 -50 -146 -58 -153 -11 -8 -59 -12 -159 -12
l-143 0 22 53 c12 28 99 284 194 567 95 283 189 554 209 603 l37 87 149 0 c82
0 149 -2 149 -5z m684 -354 c13 -14 14 -24 6 -45 -9 -23 -7 -28 14 -36 18 -6
23 -14 19 -29 -4 -17 2 -21 44 -28 26 -4 121 -8 211 -8 89 1 162 0 162 -2 0
-1 -9 -26 -21 -55 -11 -29 -31 -88 -43 -132 l-24 -80 -22 52 c-43 100 -149
164 -357 215 l-123 31 0 31 c0 31 30 68 75 93 28 16 40 15 59 -7z m-695 -172
c2 -41 58 -145 98 -180 53 -46 143 -85 266 -115 126 -31 153 -48 143 -89 -15
-61 -91 -107 -145 -89 -21 8 -27 17 -29 47 -2 28 -8 37 -21 37 -14 0 -17 6
-13 25 l4 25 -123 3 c-68 1 -173 1 -233 -1 -87 -3 -108 -1 -104 10 133 381
153 423 157 327z"/>
<path d="M11432 1691 c-62 -21 -120 -73 -150 -134 -43 -88 -58 -82 206 -85
l232 -2 10 25 c17 44 12 117 -10 153 -11 18 -36 40 -55 48 -48 20 -168 17
-233 -5z m208 -91 c20 -20 25 -45 14 -74 -5 -13 -26 -16 -127 -16 l-122 0 41
41 c65 64 156 87 194 49z"/>
<path d="M8747 1952 c-16 -17 -23 -18 -60 -10 -71 17 -241 3 -332 -26 -362
-116 -630 -562 -613 -1024 5 -140 23 -205 77 -280 46 -62 98 -82 219 -82 83 0
116 5 184 27 46 15 87 27 91 28 4 0 13 -11 20 -25 l13 -25 211 -3 c188 -2 213
0 232 15 27 23 118 265 269 719 66 198 139 412 161 477 33 93 39 121 31 137
-6 11 -15 20 -19 20 -5 0 -12 11 -15 24 -7 29 -28 32 -291 42 -151 5 -161 5
-178 -14z m385 -41 c4 -3 -9 -51 -28 -106 -20 -55 -93 -273 -163 -485 -126
-378 -218 -633 -247 -678 -14 -22 -19 -22 -159 -19 -79 1 -147 5 -150 9 -4 4
5 32 19 64 14 31 26 60 26 65 0 21 -53 6 -112 -30 -89 -56 -212 -103 -284
-109 -107 -8 -167 41 -199 163 -41 158 4 436 104 643 102 209 245 358 427 444
63 30 78 33 166 33 111 0 144 -16 164 -76 9 -27 17 -34 38 -34 24 0 30 8 51
59 13 33 30 63 37 68 14 9 299 -1 310 -11z"/>
<path d="M8393 1556 c-93 -30 -171 -102 -221 -208 -35 -73 -62 -166 -62 -215
0 -50 29 -111 64 -136 27 -19 44 -22 126 -22 168 0 198 30 291 290 69 193 83
270 54 291 -24 18 -194 18 -252 0z m170 -110 c-3 -37 -97 -299 -126 -351 -61
-108 -207 -108 -207 0 0 69 61 219 115 283 45 54 144 104 195 99 21 -2 25 -7
23 -31z"/>
<path d="M5056 540 l-539 -5 -54 -160 c-29 -88 -53 -163 -53 -167 0 -5 10 -8
21 -8 19 0 21 -4 16 -30 l-6 -30 793 0 794 0 27 88 c15 48 44 125 66 171 21
46 39 88 39 92 0 5 -11 9 -25 9 -22 0 -24 3 -15 19 5 11 10 22 10 25 0 6 -63
6 -1074 -4z m964 -34 c0 -2 -10 -26 -21 -53 -12 -26 -34 -86 -50 -133 l-27
-85 -710 -3 -710 -2 23 77 c14 43 33 103 43 133 l19 55 219 5 c280 7 1214 11
1214 6z"/>
</g>
</svg>
